<svg xmlns="http://www.w3.org/2000/svg" version="1.1" xmlns:xlink="http://www.w3.org/1999/xlink" xmlns:svgjs="http://svgjs.dev/svgjs" width="2000" height="434" viewBox="0 0 2000 434"><g transform="matrix(1,0,0,1,-1.2121212121212466,0.7911317375088345)"><svg viewBox="0 0 396 86" data-background-color="#755bb4" preserveAspectRatio="xMidYMid meet" height="434" width="2000" xmlns="http://www.w3.org/2000/svg" xmlns:xlink="http://www.w3.org/1999/xlink"><g id="tight-bounds" transform="matrix(1,0,0,1,0.2400000000000091,-0.15676804015151902)"><svg viewBox="0 0 395.52 86.31353608030305" height="86.31353608030305" width="395.52"><g><svg viewBox="0 0 535.8592424669657 116.93948740553274" height="86.31353608030305" width="395.52"><g transform="matrix(1,0,0,1,140.33924246696577,33.689847544926295)"><svg viewBox="0 0 395.52 49.55979231568016" height="49.55979231568016" width="395.52"><g id="textblocktransform"><svg viewBox="0 0 395.52 49.55979231568016" height="49.55979231568016" width="395.52" id="textblock"><g><svg viewBox="0 0 395.52 49.55979231568016" height="49.55979231568016" width="395.52"><g transform="matrix(1,0,0,1,0,0)"><svg width="395.52" viewBox="4.1 -35.7 288.87 36.2" height="49.55979231568016" data-palette-color="#ffffff"><path d="M31.8 0L25.55 0 8.05-18.1 25.2-34.7 31.3-34.7 12.8-16.9 12.8-19.5 31.8 0ZM8.8 0L4.1 0 4.1-34.7 8.8-34.7 8.8 0ZM44.15 0.5L44.15 0.5Q40.9 0.5 38.25-1.13 35.6-2.75 34.07-5.55 32.55-8.35 32.55-11.85L32.55-11.85Q32.55-15.35 34.07-18.15 35.6-20.95 38.22-22.6 40.85-24.25 44.15-24.25L44.15-24.25Q46.85-24.25 48.97-23.13 51.1-22 52.4-20.03 53.7-18.05 53.85-15.45L53.85-15.45 53.85-8.3Q53.7-5.75 52.42-3.75 51.15-1.75 49.02-0.63 46.9 0.5 44.15 0.5ZM44.9-3.75L44.9-3.75Q48.25-3.75 50.3-6.03 52.35-8.3 52.35-11.85L52.35-11.85Q52.35-14.3 51.42-16.13 50.5-17.95 48.8-18.98 47.1-20 44.85-20L44.85-20Q42.6-20 40.87-18.95 39.15-17.9 38.17-16.07 37.2-14.25 37.2-11.9L37.2-11.9Q37.2-9.5 38.17-7.68 39.15-5.85 40.9-4.8 42.65-3.75 44.9-3.75ZM56.6 0L52.05 0 52.05-6.4 52.9-12.2 52.05-17.95 52.05-23.75 56.6-23.75 56.6 0ZM73.25 0.5L73.25 0.5Q70 0.5 67.34-1.13 64.7-2.75 63.17-5.55 61.65-8.35 61.65-11.85L61.65-11.85Q61.65-15.35 63.17-18.15 64.7-20.95 67.32-22.6 69.95-24.25 73.25-24.25L73.25-24.25Q75.95-24.25 78.07-23.13 80.2-22 81.5-20.03 82.8-18.05 82.95-15.45L82.95-15.45 82.95-8.3Q82.8-5.75 81.52-3.75 80.25-1.75 78.12-0.63 76 0.5 73.25 0.5ZM74-3.75L74-3.75Q77.34-3.75 79.4-6.03 81.45-8.3 81.45-11.85L81.45-11.85Q81.45-14.3 80.52-16.13 79.59-17.95 77.9-18.98 76.2-20 73.95-20L73.95-20Q71.7-20 69.97-18.95 68.25-17.9 67.27-16.07 66.3-14.25 66.3-11.9L66.3-11.9Q66.3-9.5 67.27-7.68 68.25-5.85 70-4.8 71.75-3.75 74-3.75ZM85.7 0L81.15 0 81.15-6.4 82-12.2 81.15-17.95 81.15-23.75 85.7-23.75 85.7 0ZM113.54 0L109.04 0 109.04-13.85Q109.04-16.55 107.34-18.3 105.64-20.05 102.94-20.05L102.94-20.05Q101.14-20.05 99.74-19.25 98.34-18.45 97.54-17.05 96.74-15.65 96.74-13.85L96.74-13.85 94.89-14.9Q94.89-17.6 96.09-19.7 97.29-21.8 99.44-23.03 101.59-24.25 104.29-24.25L104.29-24.25Q106.99-24.25 109.07-22.9 111.14-21.55 112.34-19.38 113.54-17.2 113.54-14.75L113.54-14.75 113.54 0ZM96.74 0L92.24 0 92.24-23.75 96.74-23.75 96.74 0ZM143.44-14.1L140.44-14.1 126.79-34.7 132.24-34.7 143.24-17.85 140.79-17.85 151.84-34.7 157.19-34.7 143.44-14.1ZM144.34 0L139.64 0 139.64-17.2 144.34-17.2 144.34 0ZM166.39 0L161.89 0 161.89-23.75 166.39-23.75 166.39 0ZM177.48 0L172.98 0 172.98-35.7 177.48-35.7 177.48 0ZM194.13 0.5L194.13 0.5Q190.83 0.5 188.23-1.13 185.63-2.75 184.11-5.55 182.58-8.35 182.58-11.85L182.58-11.85Q182.58-15.35 184.11-18.15 185.63-20.95 188.23-22.6 190.83-24.25 194.13-24.25L194.13-24.25Q196.78-24.25 198.93-23.13 201.08-22 202.41-20.03 203.73-18.05 203.88-15.45L203.88-15.45 203.88-8.3Q203.73-5.75 202.43-3.75 201.13-1.75 198.98-0.63 196.83 0.5 194.13 0.5ZM194.88-3.75L194.88-3.75Q197.13-3.75 198.81-4.8 200.48-5.85 201.43-7.68 202.38-9.5 202.38-11.85L202.38-11.85Q202.38-14.3 201.41-16.1 200.43-17.9 198.76-18.95 197.08-20 194.83-20L194.83-20Q192.58-20 190.88-18.95 189.18-17.9 188.21-16.07 187.23-14.25 187.23-11.9L187.23-11.9Q187.23-9.5 188.21-7.68 189.18-5.85 190.91-4.8 192.63-3.75 194.88-3.75ZM206.63-35.7L206.63 0 202.08 0 202.08-6.4 202.93-12.2 202.08-17.95 202.08-35.7 206.63-35.7ZM217.68 0L213.18 0 213.18-23.75 217.68-23.75 217.68 0ZM228.78 0L224.28 0 224.28-23.75 228.78-23.75 228.78 0ZM228.78-13.55L228.78-13.55 227.08-14.3Q227.08-18.85 229.18-21.55 231.28-24.25 235.23-24.25L235.23-24.25Q237.03-24.25 238.48-23.63 239.93-23 241.18-21.55L241.18-21.55 238.23-18.5Q237.48-19.3 236.58-19.65 235.68-20 234.48-20L234.48-20Q231.98-20 230.38-18.4 228.78-16.8 228.78-13.55ZM249.72 0L245.22 0 245.22-23.75 249.72-23.75 249.72 0ZM260.82 0L256.32 0 256.32-23.75 260.82-23.75 260.82 0ZM276.87 0L272.37 0 272.37-14.35Q272.37-17 270.75-18.53 269.12-20.05 266.67-20.05L266.67-20.05Q265.02-20.05 263.72-19.35 262.42-18.65 261.62-17.4 260.82-16.15 260.82-14.4L260.82-14.4 258.97-15.3Q258.97-18 260.14-20 261.32-22 263.37-23.13 265.42-24.25 267.97-24.25L267.97-24.25Q270.47-24.25 272.5-23.15 274.52-22.05 275.69-20.05 276.87-18.05 276.87-15.3L276.87-15.3 276.87 0ZM292.97 0L288.42 0 288.42-14.35Q288.42-17 286.8-18.53 285.17-20.05 282.77-20.05L282.77-20.05Q281.12-20.05 279.8-19.35 278.47-18.65 277.67-17.4 276.87-16.15 276.87-14.4L276.87-14.4 274.32-15.3Q274.47-18.05 275.8-20.03 277.12-22 279.22-23.13 281.32-24.25 283.82-24.25L283.82-24.25Q286.42-24.25 288.47-23.15 290.52-22.05 291.75-20.05 292.97-18.05 292.97-15.25L292.97-15.25 292.97 0Z" opacity="1" transform="matrix(1,0,0,1,0,0)" fill="#ffffff" class="wordmark-text-0" data-fill-palette-color="primary" id="text-0"></path></svg></g></svg></g></svg></g></svg></g><g><svg viewBox="0 0 116.93948740553274 116.93948740553274" height="116.93948740553274" width="116.93948740553274"><g><svg></svg></g><g id="icon-0"><svg viewBox="0 0 116.93948740553274 116.93948740553274" height="116.93948740553274" width="116.93948740553274"><g><path d="M0 58.47c0-32.292 26.178-58.47 58.47-58.47 32.292 0 58.47 26.178 58.469 58.47 0 32.292-26.178 58.47-58.469 58.469-32.292 0-58.47-26.178-58.47-58.469zM58.47 112.47c29.824 0 54-24.177 54-54 0-29.824-24.177-54-54-54.001-29.824 0-54 24.177-54.001 54.001 0 29.824 24.177 54 54.001 54z" data-fill-palette-color="accent" fill="#ffffff" stroke="transparent"></path></g><g transform="matrix(1,0,0,1,24.735351496628226,44.85617747660514)"><svg viewBox="0 0 67.46878441227629 27.227132452322472" height="27.227132452322472" width="67.46878441227629"><g><svg xmlns="http://www.w3.org/2000/svg" xmlns:xlink="http://www.w3.org/1999/xlink" version="1.1" x="0" y="0" viewBox="11.565 34.49 76.87 31.02100756433972" enable-background="new 0 0 100 100" xml:space="preserve" height="27.227132452322472" width="67.46878441227629" class="icon-dxe-0" data-fill-palette-color="accent" id="dxe-0"><path d="M29.399 57.112C30.014 57.42 30.476 57.958 30.476 58.495 30.476 59.534 29.438 60.456 28.477 59.957L13.254 52.076C12.408 51.577 11.678 51.268 11.678 50.192 11.678 49.077 12.37 48.807 13.254 48.27L28.477 40.389C29.515 40.043 30.476 40.813 30.476 41.851 30.476 42.426 30.015 42.965 29.399 43.274L15.638 50.192z" fill="#ffffff" data-fill-palette-color="accent"></path><path d="M29.033 60.209C28.825 60.209 28.62 60.157 28.425 60.057L13.202 52.176 12.96 52.035C12.212 51.604 11.565 51.231 11.565 50.192 11.565 49.135 12.159 48.786 12.911 48.343 13.004 48.289 13.098 48.233 13.195 48.174L28.424 40.289C28.619 40.223 28.801 40.192 28.982 40.192 29.882 40.192 30.588 40.92 30.588 41.85 30.588 42.437 30.151 43.022 29.449 43.372L15.887 50.19 29.449 57.008C30.14 57.354 30.588 57.938 30.588 58.492 30.588 59.407 29.861 60.209 29.033 60.209M28.982 40.419C28.826 40.419 28.668 40.445 28.512 40.497L13.306 48.37C13.215 48.427 13.118 48.483 13.025 48.537 12.282 48.976 11.791 49.265 11.791 50.192 11.791 51.102 12.328 51.411 13.072 51.84 13.151 51.885 13.23 51.93 13.311 51.979L28.528 59.856C28.69 59.94 28.86 59.983 29.032 59.983 29.729 59.983 30.362 59.274 30.362 58.495 30.362 58.03 29.955 57.515 29.348 57.212L15.386 50.192 29.348 43.172C29.964 42.864 30.362 42.344 30.362 41.851 30.363 41.048 29.756 40.419 28.982 40.419" fill="#ffffff" data-fill-palette-color="accent"></path><path d="M46.385 64.416A1.44 1.44 0 0 1 44.771 65.377C44.002 65.224 43.502 64.492 43.617 63.685 43.617 63.609 43.656 63.494 43.694 63.378L53.574 35.547C53.804 34.855 54.496 34.509 55.188 34.624 55.918 34.778 56.457 35.509 56.341 36.276A0.7 0.7 0 0 1 56.264 36.546z" fill="#ffffff" data-fill-palette-color="accent"></path><path d="M45.016 65.511C44.928 65.511 44.839 65.503 44.753 65.489 43.916 65.322 43.382 64.54 43.506 63.67 43.505 63.594 43.544 63.477 43.585 63.352L53.468 35.51C53.675 34.892 54.246 34.49 54.925 34.49 55.019 34.49 55.113 34.499 55.206 34.513 56.018 34.685 56.575 35.483 56.453 36.294A0.8 0.8 0 0 1 56.366 36.596L46.491 64.452A1.55 1.55 0 0 1 45.016 65.511M54.925 34.715C54.345 34.715 53.857 35.055 53.681 35.582L43.801 63.415C43.766 63.519 43.731 63.628 43.731 63.685 43.623 64.452 44.08 65.124 44.793 65.267A1.326 1.326 0 0 0 46.279 64.381L56.16 36.509A0.7 0.7 0 0 0 56.23 36.278 1.383 1.383 0 0 0 55.166 34.735 1.5 1.5 0 0 0 54.925 34.715" fill="#ffffff" data-fill-palette-color="accent"></path><path d="M84.362 50.192L70.6 43.274C69.986 42.965 69.525 42.426 69.525 41.851 69.525 40.813 70.562 39.889 71.523 40.389L86.746 48.27C87.631 48.807 88.322 49.077 88.322 50.192 88.322 51.268 87.592 51.577 86.746 52.076L71.523 59.957C70.562 60.456 69.525 59.534 69.525 58.495 69.525 57.958 69.986 57.42 70.6 57.112z" fill="#ffffff" data-fill-palette-color="accent"></path><path d="M70.967 60.209C70.139 60.209 69.411 59.407 69.411 58.495 69.411 57.94 69.858 57.356 70.55 57.011L84.112 50.193 70.55 43.374C69.848 43.022 69.411 42.438 69.411 41.852 69.411 40.939 70.139 40.138 70.967 40.138 71.176 40.138 71.38 40.189 71.575 40.29L86.798 48.171 87.088 48.344C87.841 48.786 88.435 49.136 88.435 50.193 88.435 51.232 87.789 51.605 87.04 52.036L86.803 52.174 71.575 60.058A1.3 1.3 0 0 1 70.967 60.209M70.967 40.363C70.271 40.363 69.637 41.072 69.637 41.851 69.637 42.344 70.034 42.864 70.651 43.172L84.613 50.192 70.651 57.212C70.045 57.517 69.637 58.032 69.637 58.495 69.637 59.274 70.271 59.983 70.967 59.983 71.139 59.983 71.309 59.94 71.471 59.856L86.694 51.976C86.769 51.93 86.849 51.885 86.927 51.84 87.671 51.41 88.209 51.102 88.209 50.192 88.209 49.264 87.718 48.976 86.974 48.537 86.881 48.483 86.786 48.427 86.687 48.367L71.471 40.491A1.1 1.1 0 0 0 70.967 40.363" fill="#ffffff" data-fill-palette-color="accent"></path></svg></g></svg></g></svg></g></svg></g></svg></g><defs></defs></svg><rect width="395.52" height="86.31353608030305" fill="none" stroke="none" visibility="hidden"></rect></g></svg></g></svg>